<svg id="Layer_5" enable-background="new 0 0 64 64" height="512" viewBox="0 0 64 64" width="512" xmlns="http://www.w3.org/2000/svg"><g><path d="m14 17c.552 0 1 .448 1 1h2c0-1.654-1.346-3-3-3v-2h-2v2h-3v3c0 1.654 1.346 3 3 3h2c.552 0 1 .448 1 1v1h-3c-.552 0-1-.448-1-1h-2c0 1.654 1.346 3 3 3v2h2v-2h3v-3c0-1.654-1.346-3-3-3h-2c-.552 0-1-.448-1-1v-1z"/><path d="m12 49h2v2h-2z"/><path d="m12 41h2v2h-2z"/><path d="m12 45h2v2h-2z"/><path d="m12 37h2v2h-2z"/><path d="m12 33h2v2h-2z"/><path d="m50.414 1h-37.414v8h-9c-1.654 0-3 1.346-3 3v16c0 1.654 1.346 3 3 3h2v23.287l4.622 7.396c.517.825 1.405 1.317 2.378 1.317h50v-49.414zm-28.414 8h-3v-2h30v8h8v4h-32v-7c0-1.654-1.346-3-3-3zm29 4v-8.586l8.586 8.586zm-36-10h34v2h-32v4h-2zm-12 25v-16c0-.552.448-1 1-1h18c.552 0 1 .448 1 1v20.667c0 .288-.428.429-.601.2l-2.899-3.867h-15.5c-.552 0-1-.448-1-1zm15 3v22h-10v-22zm-5.683 29.622-3.513-5.622h8.391l-3.513 5.622c-.296.473-1.068.473-1.365 0zm3.488.378 4.195-6.713v-21.287l.8 1.066c.438.585 1.136.934 1.867.934 1.286 0 2.333-1.047 2.333-2.333v-11.667h34v-6h2v46z"/><path d="m55 36.586-1.753 1.753c-1.611-.878-3.409-1.339-5.247-1.339-6.065 0-11 4.935-11 11 0 1.838.461 3.636 1.339 5.247l-1.753 1.753 4.414 4.414 1.753-1.753c1.611.878 3.409 1.339 5.247 1.339 6.065 0 11-4.935 11-11 0-1.838-.461-3.636-1.339-5.247l1.753-1.753zm-16 11.414c0-4.963 4.037-9 9-9 1.303 0 2.581.285 3.757.829l-1.537 1.537c-.717-.242-1.461-.366-2.22-.366-3.859 0-7 3.141-7 7 0 .759.124 1.503.366 2.22l-1.537 1.537c-.544-1.176-.829-2.454-.829-3.757zm4.057.529c-.019-.176-.057-.35-.057-.529 0-2.757 2.243-5 5-5 .179 0 .353.038.529.057zm-3.643 6.471 15.586-15.586 1.586 1.586-15.586 15.586zm13.586-7c0 2.757-2.243 5-5 5-.179 0-.353-.038-.529-.057l5.473-5.473c.018.177.056.351.056.53zm4 0c0 4.963-4.037 9-9 9-1.303 0-2.581-.285-3.757-.829l1.537-1.537c.717.242 1.461.366 2.22.366 3.859 0 7-3.141 7-7 0-.759-.124-1.503-.366-2.22l1.537-1.537c.544 1.176.829 2.454.829 3.757z"/><path d="m27 23h2v2h-2z"/><path d="m31 23h28v2h-28z"/><path d="m27 27h32v2h-32z"/><path d="m27 31h32v2h-32z"/><path d="m22 37h13v2h-13z"/><path d="m22 41h13v2h-13z"/><path d="m22 45h13v2h-13z"/><path d="m22 49h13v2h-13z"/><path d="m22 53h13v2h-13z"/><path d="m22 57h13v2h-13z"/></g></svg>